<svg id="Layer_1" data-name="Layer 1" xmlns="http://www.w3.org/2000/svg" viewBox="0 0 640 448"><defs><style>.cls-1{fill:#fff;}</style></defs><path class="cls-1" d="M192,256A112,112,0,1,0,80,144,111.94,111.94,0,0,0,192,256Zm76.8,32h-8.3A157.53,157.53,0,0,1,192,304c-24.6,0-47.6-6-68.5-16h-8.3A115.23,115.23,0,0,0,0,403.2V432a48,48,0,0,0,48,48H336a48,48,0,0,0,48-48V403.2A115.23,115.23,0,0,0,268.8,288ZM480,256a96,96,0,1,0-96-96A96,96,0,0,0,480,256Zm48,32h-3.8c-13.9,4.8-28.6,8-44.2,8s-30.3-3.2-44.2-8H432c-20.4,0-39.2,5.9-55.7,15.4,24.4,26.3,39.7,61.2,39.7,99.8v38.4c0,2.2-.5,4.3-.6,6.4H592a48,48,0,0,0,48-48A111.94,111.94,0,0,0,528,288Z" transform="translate(0 -32)"/></svg>